<svg xmlns="http://www.w3.org/2000/svg" width="55.286" height="67.897" viewBox="0 0 55.286 67.897">
  <path id="Icon_metro-apple" data-name="Icon metro-apple" d="M51.611,38c-.086-8.6,7.012-12.722,7.33-12.927a15.856,15.856,0,0,0-12.415-6.728c-5.287-.535-10.317,3.113-13,3.113s-6.817-3.034-11.2-2.954A16.612,16.612,0,0,0,8.278,27.02C2.291,37.41,6.745,52.8,12.581,61.228c2.852,4.124,6.252,8.757,10.717,8.592,4.3-.172,5.925-2.782,11.123-2.782s6.659,2.782,11.209,2.7c4.626-.086,7.558-4.2,10.389-8.341a37.425,37.425,0,0,0,4.7-9.656A15,15,0,0,1,51.611,38ZM43.061,12.77A14.963,14.963,0,0,0,46.594,1.928a15.221,15.221,0,0,0-10,5.142c-2.2,2.545-4.121,6.606-3.605,10.505C36.8,17.872,40.689,15.639,43.061,12.77Z" transform="translate(-5.435 -1.928)" fill="#27cc34"/>
</svg>
